<svg width="30" height="30" viewBox="0 0 211 287" fill="none" xmlns="http://www.w3.org/2000/svg">
<path d="M167.731 0.810059C144.361 0.810059 125.351 19.8199 125.351 43.1899C125.351 58.7599 133.801 72.41 146.361 79.77V109.05C146.361 130.81 128.391 148.77 106.651 148.77C84.9109 148.77 67.4009 130.8 67.4009 108.9V77.4702C77.9809 69.7602 84.8809 57.2699 84.8809 43.1899C84.8809 19.8199 65.871 0.810059 42.501 0.810059C19.131 0.810059 0.121094 19.8199 0.121094 43.1899C0.121094 58.7299 8.54078 72.35 21.0508 79.73V108.9C21.0608 148.29 47.5412 181.39 83.9512 191.33V207.88C71.5312 215.28 63.1909 228.83 63.1909 244.3C63.1909 267.67 82.2008 286.68 105.571 286.68C128.941 286.68 147.951 267.67 147.951 244.3C147.951 229.95 140.781 217.25 129.821 209.58V191.33C165.741 181.39 192.691 148.3 192.691 109.05V77.4102C203.231 69.7002 210.091 57.2299 210.091 43.1899C210.091 19.8199 191.091 0.810059 167.721 0.810059H167.731ZM42.5107 22.3701C53.4007 22.3701 62.3707 30.7902 63.2607 41.4502C63.3207 42.0302 63.3408 42.6102 63.3408 43.2002C63.3408 54.6802 53.9907 64.0298 42.5107 64.0298C31.0307 64.0298 21.6812 54.6802 21.6812 43.2002C21.6812 42.6102 21.7007 42.0302 21.7607 41.4502C22.6407 30.7902 31.6207 22.3701 42.5107 22.3701ZM105.571 265.12C94.0908 265.12 84.7412 255.79 84.7412 244.29C84.7412 244.12 84.741 243.95 84.751 243.79C85.011 232.54 94.261 223.47 105.561 223.47C116.861 223.47 126.111 232.53 126.371 243.79C126.381 243.95 126.381 244.12 126.381 244.29C126.381 255.78 117.031 265.12 105.551 265.12H105.571ZM167.731 22.3701C178.461 22.3701 187.311 30.5402 188.431 40.9702C188.501 41.7002 188.541 42.4399 188.541 43.1899C188.541 54.6699 179.201 64.02 167.731 64.02C156.261 64.02 146.901 54.6699 146.901 43.1899C146.901 42.4399 146.951 41.6902 147.021 40.9702C148.131 30.5302 156.991 22.3701 167.721 22.3701H167.731Z" fill="#08802e"/>
</svg>
