<svg width="60" height="30" viewBox="0 0 546 237" fill="none" xmlns="http://www.w3.org/2000/svg">
<path d="M202.441 0.0102539V159.06C202.441 172.79 191.322 183.34 177.562 183.34C163.802 183.34 153.211 172.79 153.211 159.06V0.0102539H101.341V159.06C101.341 172.79 90.7517 183.34 76.9917 183.34C63.2317 183.34 52.6416 172.79 52.6416 159.06V0.0102539H0.771484V159.06C0.771484 201.3 34.6517 235.08 76.9917 235.08C96.0417 235.08 114.041 227.69 127.281 216.07C140.511 227.69 158.512 235.08 177.562 235.08C219.902 235.08 253.781 201.3 253.781 159.06V0.0102539H202.441Z" fill="#E64B40"/>
<path d="M274.941 0.100586V233.21H326.812V0.100586H274.941Z" fill="#E64B40"/>
<path d="M472.152 91.6106H421.812C411.852 91.6106 403.552 83.3306 403.552 72.8506C403.552 62.3706 411.852 54.0906 421.812 54.0906H491.522L545.202 0.560578H422.372C381.982 0.0105777 349.332 32.5706 349.332 72.8506C349.332 113.131 381.982 145.14 421.822 145.14H472.162C482.672 145.14 490.982 153.97 490.982 163.9V164.45C490.982 174.38 482.682 182.66 472.162 182.66H403.102L357.112 228.521L349.332 236.281V236.741H472.162C512.552 236.741 545.202 204.18 545.202 164.45V163.9C545.202 124.16 512.552 91.6106 472.162 91.6106H472.152Z" fill="#E64B40"/>
</svg>
